<!DOCTYPE svg PUBLIC "-//W3C//DTD SVG 1.1//EN" "http://www.w3.org/Graphics/SVG/1.1/DTD/svg11.dtd">
<svg width="200px" height="200px" viewBox="0 0 24 24" fill="none" xmlns="http://www.w3.org/2000/svg" stroke="#000000" stroke-width="0" transform="matrix(1, 0, 0, 1, 0, 0)rotate(90)">
<g id="SVGRepo_bgCarrier" stroke-width="0"/>
<g id="SVGRepo_iconCarrier">
<path d="M12 2a1 1 0 0 1 .894.553l9 18a1 1 0 0 1-1.11 1.423L12 20.024l-8.783 1.952a1 1 0 0 1-1.111-1.423l9-18A1 1 0 0 1 12 2zm1 16.198l6.166 1.37L13 7.236v10.962zM11 7.236L4.834 19.568 11 18.198V7.236z" fill="#000000"/>
</g>
</svg>